<svg xmlns="http://www.w3.org/2000/svg" viewBox="0 0 1200 360" role="img" aria-label="deblob — Give every blob a permanent shape.">
  <!-- README hero (light). Geometric Imprintling STAND-IN per docs/brand/design-book.md. -->
  <rect width="1200" height="360" fill="#F7F9FB"/>

  <g transform="translate(70 96) scale(1.9)">
    <ellipse cx="46" cy="86" rx="40" ry="7" fill="#148F7A" opacity="0.35"/>
    <path fill="#20B89A" stroke="#056B5C" stroke-width="2.2" stroke-linejoin="round" d="
      M 14 90 C 5 90 3 66 7 55 C 9 36 19 18 38 18
      C 48 18 50 27 59 27 C 68 27 74 12 90 17
      C 106 22 106 50 104 62 C 103 78 95 90 80 90 Z"/>
    <ellipse cx="30" cy="40" rx="8" ry="5" fill="#A6F3E2" opacity="0.9"/>
    <rect x="44" y="56" width="30" height="26" rx="3.5" fill="#FFFFFF" stroke="#056B5C" stroke-width="2.2"/>
    <path d="M45 65 h28 M45 73 h28 M59 56 v13" stroke="#20B89A" stroke-width="1.8" fill="none"/>
    <rect x="40" y="38" width="6" height="14" rx="3" fill="#0B1118"/>
    <rect x="60" y="41" width="9" height="9" rx="2" fill="#0B1118"/>
    <path d="M50 49 l5 4 -5 4 -5 -4 Z" fill="#0B1118"/>
  </g>

  <text x="330" y="150" font-family="'Trebuchet MS', Verdana, sans-serif" font-size="72" font-weight="600" fill="#17202A">deblob</text>
  <text x="333" y="192" font-family="'Segoe UI', Verdana, sans-serif" font-size="23" fill="#556575">Give every blob a permanent shape.</text>

  <g font-family="'Consolas', 'Courier New', monospace" font-size="15">
    <g fill="#A85A00">
      <path d="M690 236 l20 -3 4 16 -19 4 Z"/>
      <path d="M718 232 l19 2 -2 17 -20 -2 Z" opacity="0.8"/>
      <path d="M745 238 l18 -2 3 15 -18 3 Z" opacity="0.6"/>
    </g>
    <text x="690" y="220" fill="#556575">irregular records</text>
    <path d="M792 242 H 902" stroke="#A85A00" stroke-width="2.4" fill="none" marker-end="url(#ahl)"/>
    <rect x="912" y="224" width="34" height="34" rx="4" fill="#FFFFFF" stroke="#087F6D" stroke-width="2.4"/>
    <path d="M918 236 h22 M918 246 h22 M929 224 v34" stroke="#087F6D" stroke-width="1.6" fill="none"/>
    <text x="958" y="238" fill="#087F6D">sch_7M4K2W…F9Q</text>
    <text x="958" y="256" fill="#556575">schema identity</text>
    <path d="M840 250 C 850 300, 890 300, 900 312" stroke="#1769AA" stroke-width="2" stroke-dasharray="5 5" fill="none"/>
    <text x="908" y="318" fill="#1769AA">asynchronous discovery</text>
  </g>

  <defs>
    <marker id="ahl" markerWidth="9" markerHeight="9" refX="7" refY="4.5" orient="auto">
      <path d="M0 0 L9 4.5 L0 9 Z" fill="#A85A00"/>
    </marker>
  </defs>
</svg>
